inDegrees=no
num_controls=7
num_derivatives=13
num_iterations=108
num_multipliers=7
num_parameters=0
num_slacks=7
num_states=26
objective=4.615904
objective_accelerations=0.636791
objective_balance=0.030202
objective_effort=0.482120
objective_height=3.403779
objective_ligament=0.063012
solver_duration=1169.921420
status=Solve_Succeeded
success=true
DataType=double
version=3
OpenSimVersion=4.4-2022-07-23-0e9fedc
endheader
time	/jointset/ground_pelvis/pelvis_tilt/value	/jointset/ground_pelvis/pelvis_tx/value	/jointset/ground_pelvis/pelvis_ty/value	/jointset/hip_l/hip_flexion_l/value	/jointset/hip_l/hip_adduction_l/value	/jointset/hip_l/hip_rotation_l/value	/jointset/back/lumbar_extension/value	/jointset/patellofemoral_l/patellar_flexion_l/value	/jointset/knee_l/knee_flexion_l/value	/jointset/knee_l/knee_adduction_l/value	/jointset/knee_l/knee_rotation_l/value	/jointset/ankle_l/ankle_angle_l/value	/jointset/subtalar_l/subtalar_angle_l/value	/jointset/ground_pelvis/pelvis_tilt/speed	/jointset/ground_pelvis/pelvis_tx/speed	/jointset/ground_pelvis/pelvis_ty/speed	/jointset/hip_l/hip_flexion_l/speed	/jointset/hip_l/hip_adduction_l/speed	/jointset/hip_l/hip_rotation_l/speed	/jointset/back/lumbar_extension/speed	/jointset/patellofemoral_l/patellar_flexion_l/speed	/jointset/knee_l/knee_flexion_l/speed	/jointset/knee_l/knee_adduction_l/speed	/jointset/knee_l/knee_rotation_l/speed	/jointset/ankle_l/ankle_angle_l/speed	/jointset/subtalar_l/subtalar_angle_l/speed	/forceset/tau_hip_flexion_l	/forceset/tau_hip_adduction_l	/forceset/tau_hip_rotation_l	/forceset/tau_knee_flexion_l	/forceset/tau_ankle_angle_l	/forceset/tau_subtalar_angle_l	/forceset/tau_lumbar_extension	lambda_cid13_p0	lambda_cid13_p1	lambda_cid13_p2	lambda_cid13_p3	lambda_cid13_p4	lambda_cid13_p5	lambda_cid14_p0	/jointset/ground_pelvis/pelvis_tilt/accel	/jointset/ground_pelvis/pelvis_tx/accel	/jointset/ground_pelvis/pelvis_ty/accel	/jointset/hip_l/hip_flexion_l/accel	/jointset/hip_l/hip_adduction_l/accel	/jointset/hip_l/hip_rotation_l/accel	/jointset/back/lumbar_extension/accel	/jointset/patellofemoral_l/patellar_flexion_l/accel	/jointset/knee_l/knee_flexion_l/accel	/jointset/knee_l/knee_adduction_l/accel	/jointset/knee_l/knee_rotation_l/accel	/jointset/ankle_l/ankle_angle_l/accel	/jointset/subtalar_l/subtalar_angle_l/accel	gamma_cid13_p0	gamma_cid13_p1	gamma_cid13_p2	gamma_cid13_p3	gamma_cid13_p4	gamma_cid13_p5	gamma_cid14_p0
0.5	-0.3077379740525961	-0.0476902688478829	0.691129455964796	1.396197273358155	-0.2476427523093451	-0.02229826443516086	-0.3691769796231859	1.14671855599551	1.146718555995564	0.02639123549419669	0.1745261910555412	0.270989905337877	0.07513840792866092	-0.2338644648379819	-0.09490750508534898	-0.8231408403926188	2.569053855879886	0.06773810573873701	0.3933278775868927	-0.5645185252127951	2.932038914403743	2.932038914403504	0.5094703494367318	0.000940410146700561	0.750012097041185	0.292536221008665	-0.1996956944383463	-0.009613739177868267	-0.009800570290815601	-0.3414254313455842	0.133680801125892	0.02906633800477252	0.207732767351614	5.348000184108904	-11.62212696293438	-0.7629445728046006	-14.3390201704963	-611.1214468829363	-70.11789279177813	-2.010128511542357	1.466356641064982	1.18595433599705	-0.5095271040850423	-2.573561867720151	-0.2308828055160547	-0.9884088030437385	2.606113255716477	-2.319477662612033	-2.319477662612057	-0.4851895665289433	-0.1949684004005955	-1.466044236660611	-0.3046967401325768	2.938588672537645e-07	-5.947706168680767e-06	-4.831978404699152e-06	-1.076211748773308e-06	-2.962614048583732e-07	-4.912060470894658e-06	-1.56884996402897e-08
0.51	-0.3100029464906879	-0.04858017404137364	0.6828747072215717	1.421755963855272	-0.2469783622310816	-0.01842100483454496	-0.3746916488373845	1.175918353953568	1.175918353953519	0.03146508674063964	0.1745314084924267	0.2784147746332138	0.07804588566550322	-0.219078506332899	-0.0830794586653488	-0.827597634153488	2.542366310081967	0.06508682740954924	0.3821230572019398	-0.5383935240304956	2.907544237400294	2.907544237400309	0.5052522727557412	0.0001691053672391248	0.7348420086437154	0.2888285192312491	-0.2056606930702016	-0.009244574642730125	-0.01049085309829824	-0.3486303623062634	0.1325214263938387	0.02923899116667475	0.2132004413057857	4.500924058609344	-11.33178855139326	-1.057100761653522	-13.79184905255085	-619.0076621774965	-70.46801441880771	-1.192668140723335	1.492458446291864	1.180128426790217	-0.3821227199094294	-2.764020174128006	-0.2892504746222964	-1.186772507284975	2.61896258939559	-2.570932354024908	-2.570932353986754	-0.3980167132334611	-0.00720187197589162	-1.560680256460061	-0.4219332337522335	3.295612640178228e-07	-5.57907029402901e-06	-4.870724477646264e-06	-1.046697689057973e-06	-2.856138563768421e-07	-5.01066959039689e-06	4.066973662749055e-08
0.52	-0.3121185107455143	-0.04935201904430704	0.6745817170991742	1.447038245046752	-0.2463418849617093	-0.01465584420799111	-0.3799444142317774	1.204861911214628	1.204861911214478	0.03649517722140089	0.1745311148115455	0.285684305221542	0.08091266111713004	-0.2039828281853285	-0.07129546697388166	-0.8307891162272193	2.513771994752033	0.06215554396025932	0.370908082774415	-0.5121377612518238	2.880790775004305	2.880790775004575	0.5007181963007762	-0.0001618136224746844	0.7189443556394463	0.2843957639655759	-0.2116256917020528	-0.008875410107581342	-0.01118113590579731	-0.3558352932669399	0.1313620516617898	0.02941164432859273	0.2186681152599616	3.667619268242619	-11.05709879353212	-1.333648552926665	-13.37837361418288	-626.7341620603635	-70.83387216882498	-0.6030483280900223	1.528300569562666	1.177143390290305	-0.2564647666575209	-2.954915774122957	-0.2868838295361507	-0.9904396115576138	2.632265574991136	-2.771234741119934	-2.771234741119946	-0.5483895213237951	-0.1068912424518775	-1.611557158020713	-0.4497074377836198	3.57126758594932e-07	-5.190779359230656e-06	-4.792910545365068e-06	-1.013659866448071e-06	-2.734924322034537e-07	-5.054408762407682e-06	8.583112466453795e-08
0.53	-0.3140818649150783	-0.05000637445159369	0.6662631474453864	1.472025450492563	-0.245735731496778	-0.01100222453808602	-0.3849341710370941	1.233526896431368	1.233526896431485	0.04147860215089181	0.1745286499997633	0.2927914900099018	0.08373194297949406	-0.1886586766059211	-0.05959420357422023	-0.8327100869707633	2.483370250931155	0.05904692611853671	0.3598255969316383	-0.4858212824903115	2.851842395194748	2.851842395194923	0.4959395135158311	-0.0002988167588763641	0.7023931347392998	0.2793594830648447	-0.2170936989357123	-0.00857854865952715	-0.01204862301781678	-0.3635598532340152	0.1302447105255629	0.02947170010394525	0.2236782292594048	2.826760257846083	-10.72861074461958	-1.622849842207993	-12.76878938719122	-634.5115761604325	-71.14130745713852	-0.2285989937235051	1.53889735314322	1.163630189878559	-0.1277575194242643	-3.127599718551002	-0.3262204447992652	-1.165720586150217	2.630186625360326	-3.011242483509668	-3.011242483524005	-0.4472815092893543	0.03884166407535931	-1.692011106312651	-0.5444063607526265	3.584050147699133e-07	-4.467517630564442e-06	-4.330805939799783e-06	-9.280693416775536e-07	-2.371709371917772e-07	-4.66981365279197e-06	1.117220946825776e-07
